<svg width="200" height="200" viewBox="0 0 200 200" fill="none" xmlns="http://www.w3.org/2000/svg">
    <path d="M45 135V20H59V135H45Z" fill="#EB4646"/>
    <path d="M163.134 63.8347C162.471 63.7071 161.8 63.6205 161.126 63.5755C160.356 63.5179 159.518 63.4891 158.605 63.4891C155.362 63.3687 152.136 64.0267 149.194 65.409C147.376 66.3101 145.604 67.3033 143.885 68.3849C145.011 70.4373 145.914 72.6067 146.578 74.8552C147.184 77.3676 147.459 79.9499 147.396 82.535C147.396 92.5507 144.773 100.09 139.527 105.152C134.281 110.214 126.034 113.35 114.787 114.56C111.746 114.831 108.77 115.603 105.976 116.845C103.464 118.016 102.17 120.358 102.17 123.891C102.17 129.759 105.364 132.691 111.752 132.684H131.601C139.847 132.684 146.264 134.514 150.85 138.175C155.436 141.836 157.72 146.815 157.701 153.112C157.701 161.432 153.895 168.168 146.283 173.32C138.67 178.472 127.918 181.032 114.026 181C101.65 181 92.3662 179.153 86.175 175.461C79.9838 171.768 76.9262 166.59 77.0023 159.928C76.9567 157.101 77.59 154.305 78.8483 151.778C80.079 149.357 81.7966 147.222 83.8913 145.509C86.1583 143.668 88.7374 142.256 91.5035 141.343C94.6205 140.31 97.8575 139.691 101.133 139.5C98.2392 138.774 95.6397 137.161 93.692 134.882C91.7902 132.723 90.7523 129.928 90.7804 127.039C90.7264 123.696 91.9892 120.468 94.2915 118.064C96.7767 115.482 99.9603 113.696 103.445 112.928C100.551 112.079 97.7873 110.828 95.2335 109.213C89.7263 105.825 85.4714 100.71 83.1206 94.6499C81.7908 91.1237 81.1448 87.3726 81.2175 83.6006C81.1428 79.0168 82.0314 74.4691 83.8248 70.2569C85.49 66.4044 87.9297 62.9427 90.9897 60.0908C94.1053 57.2316 97.7361 55.0025 101.685 53.5245C105.888 51.9472 110.341 51.1567 114.825 51.1918C119.933 51.1321 124.98 52.3177 129.536 54.6477C133.624 56.6471 137.175 59.6106 139.888 63.2875C140.7 61.7734 141.656 60.3427 142.743 59.0156C144.063 57.4019 145.571 55.9546 147.234 54.7053C149.036 53.3323 151.006 52.1998 153.096 51.3358C155.339 50.4247 157.738 49.9712 160.156 50.0014C160.839 49.9936 161.522 50.0225 162.202 50.0878C162.715 50.1454 163.315 50.2318 164 50.347L163.134 63.8347ZM108.46 143.34C102.643 143.34 98.2372 144.405 95.243 146.537C92.2489 148.668 90.774 152.149 90.8184 156.981C90.7613 159.134 91.2147 161.27 92.1411 163.211C93.086 165.001 94.5683 166.442 96.3753 167.33C98.7817 168.486 101.348 169.266 103.988 169.643C107.867 170.235 111.787 170.505 115.71 170.45C125.409 170.45 132.454 169.326 136.844 167.08C141.233 164.834 143.428 161.128 143.428 155.964C143.428 151.586 141.874 148.386 138.766 146.364C135.657 144.341 130.583 143.33 123.541 143.33L108.46 143.34ZM114.626 103.981C120.785 103.981 125.543 102.246 128.898 98.7778C132.254 95.3091 133.922 90.0516 133.903 83.0054C133.903 68.9257 127.56 61.8859 114.873 61.8859C108.529 61.8859 103.553 63.6747 99.9436 67.2522C96.3341 70.8297 94.523 76.0903 94.5103 83.0342C94.5103 90.074 96.2929 95.3315 99.8579 98.8066C103.423 102.282 108.355 104.006 114.654 103.981H114.626Z" fill="#EB4646"/>
</svg>
