<svg id="Layer_1" data-name="Layer 1" xmlns="http://www.w3.org/2000/svg" viewBox="0 0 1039.73 359.59"><defs><style>.cls-1{fill:#2d2d2d;}
</style></defs><path class="cls-1" d="M145.64,239.72H119.86V119.87h28L202,202.53V119.87h25.77V239.72H199.59l-54-80.27Z"></path><path class="cls-1" d="M334.72,239.72l40.69-119.85h31.3l44.37,119.85H422L414.44,218H369.89l-6.63,21.72Zm41.06-42h32L390.69,146Z"></path><path class="cls-1" d="M290.66,215.66a47.19,47.19,0,1,1,47.19-47.19A47.24,47.24,0,0,1,290.66,215.66Zm0-69.2a22,22,0,1,0,22,22A22,22,0,0,0,290.66,146.46Z"></path><path class="cls-1" d="M499,239.73V119.86h14.57V239.73Z"></path><path class="cls-1" d="M623,165.9a17.43,17.43,0,0,0-2.11-.27c-.81-.06-1.69-.09-2.65-.09a21.55,21.55,0,0,0-9.89,2,63.17,63.17,0,0,0-5.58,3.1,33.86,33.86,0,0,1,2.83,6.74,30.6,30.6,0,0,1,.86,8q0,15.65-8.27,23.56t-26,9.8a29.41,29.41,0,0,0-9.26,2.38c-2.64,1.22-4,3.66-4,7.34q0,9.17,10.07,9.16h20.86q13,0,20.23,5.72t7.2,15.56q0,13-12,21.05t-33.9,8q-19.51,0-29.27-5.77T532.48,266a18.25,18.25,0,0,1,1.94-8.49,20.38,20.38,0,0,1,5.3-6.53,25.31,25.31,0,0,1,8-4.34,39.77,39.77,0,0,1,10.12-1.92,15.16,15.16,0,0,1-7.82-4.81,12.12,12.12,0,0,1-3.06-8.17,13.15,13.15,0,0,1,3.69-9.35,19.09,19.09,0,0,1,9.62-5.35,34.25,34.25,0,0,1-8.63-3.87A31,31,0,0,1,538.91,198a30.69,30.69,0,0,1-2-11.51,33.81,33.81,0,0,1,2.74-13.9A31.63,31.63,0,0,1,547.18,162a34.58,34.58,0,0,1,11.24-6.84,38.75,38.75,0,0,1,13.81-2.43,33.34,33.34,0,0,1,15.46,3.6,29.73,29.73,0,0,1,10.88,9,27.63,27.63,0,0,1,3-4.45,27.1,27.1,0,0,1,4.72-4.49,27.57,27.57,0,0,1,6.16-3.51,19.23,19.23,0,0,1,7.42-1.39,20.27,20.27,0,0,1,2.15.09q.81.09,1.89.27Zm-57.46,82.82q-9.17,0-13.89,3.33T547,262.93a14.09,14.09,0,0,0,1.39,6.49,10,10,0,0,0,4.45,4.29,27.61,27.61,0,0,0,8,2.41,75.33,75.33,0,0,0,12.32.84q15.29,0,22.21-3.51t6.92-11.58q0-6.84-4.9-10t-16-3.16Zm6.48-41q9.71,0,15-5.42t5.26-16.43q0-22-20-22-10,0-15.69,5.59t-5.71,16.44q0,11,5.62,16.43T572.05,207.72Z"></path><path class="cls-1" d="M700.1,183.62a23,23,0,0,0-1.22-7.45,19.2,19.2,0,0,0-3.51-6.28,16.76,16.76,0,0,0-5.88-4.38,20.07,20.07,0,0,0-8.55-1.67,21.13,21.13,0,0,0-11,2.8,25.93,25.93,0,0,0-7.92,7.22,31.91,31.91,0,0,0-4.76,10,40.4,40.4,0,0,0-1.58,11.07v44.81h-14V172.47q0-2.7-.27-7.78t-.63-9.67h13.67a31.11,31.11,0,0,1,.27,3.19c0,1.41.11,2.9.18,4.46s.09,3.16.09,4.81v4.27h.89a26.83,26.83,0,0,1,4.23-6.88,35.71,35.71,0,0,1,6.48-6.07,33.17,33.17,0,0,1,8.18-4.36,28.23,28.23,0,0,1,9.89-1.67,36.78,36.78,0,0,1,11.55,1.76,24.78,24.78,0,0,1,9.31,5.44,25.49,25.49,0,0,1,6.25,9.57A39.08,39.08,0,0,1,714,183.71v56H700.1Z"></path><path class="cls-1" d="M758.42,124.27a10.93,10.93,0,0,1-3.14,8.09,11.29,11.29,0,0,1-7.38,3,10.41,10.41,0,0,1-7-3,10.57,10.57,0,0,1-3.15-8.09c0-3.42,1-6,3.15-7.73a9.9,9.9,0,0,1,7-2.79,11.22,11.22,0,0,1,7.38,2.79A9.77,9.77,0,0,1,758.42,124.27ZM741.07,239.73V155h14v84.71Z"></path><path class="cls-1" d="M789.84,155V137.31l14-1.8V155h25.36v11.06H803.86v50.71a31.66,31.66,0,0,0,.45,5.55,11.77,11.77,0,0,0,1.76,4.49,8.91,8.91,0,0,0,3.68,3.12,14.1,14.1,0,0,0,6.07,1.15,21.5,21.5,0,0,0,6.52-.77,20.15,20.15,0,0,0,4.54-2.2l2.34,10.56a36,36,0,0,1-6.38,2.41,30.93,30.93,0,0,1-8.45,1.06q-10.71,0-17.63-5.57t-6.92-18.43V166.08h-13.4V155Z"></path><path class="cls-1" d="M858.72,199q.36,16.47,7.73,24.2a24.63,24.63,0,0,0,18.61,7.73,24.21,24.21,0,0,0,9.81-1.76,26.46,26.46,0,0,0,6.56-4,18.41,18.41,0,0,0,4.41-5.66l12.58,6.38a23.83,23.83,0,0,1-7.19,8.17A39.28,39.28,0,0,1,901,239.54,44.49,44.49,0,0,1,885.24,242a43.2,43.2,0,0,1-18.16-3.51,34.49,34.49,0,0,1-12.59-9.58,40.5,40.5,0,0,1-7.37-14.2,59.61,59.61,0,0,1-2.43-17.13,56.22,56.22,0,0,1,3-18.89A39.7,39.7,0,0,1,856,164.6a36.24,36.24,0,0,1,12.73-8.77,41.31,41.31,0,0,1,16-3.06,36.69,36.69,0,0,1,15.47,3.06,29,29,0,0,1,11,8.59,38.71,38.71,0,0,1,6.52,13,57.27,57.27,0,0,1,2.2,16.28v2.65a21.32,21.32,0,0,1-.18,2.65ZM884,163.84q-10.51,0-17,6.8t-7.55,17.29h45.5v-1.47a27.77,27.77,0,0,0-1.22-8A23.65,23.65,0,0,0,900,171.1a17.88,17.88,0,0,0-6.43-5.29A21.5,21.5,0,0,0,884,163.84Z"></path></svg>